<svg xmlns="http://www.w3.org/2000/svg" width="189.841" height="14.063"><path d="M21.024.24l-3.341 13.583h-5.101l-2.061-8.222-2.081 8.222H3.341L0 .24h4.141l2.061 9.822L8.642.24h3.741l2.44 9.822L16.884.24h4.14zM34.983.24v13.583h-4.241V8.262h-4.821v5.562h-4.24V.24h4.24v5.001h4.821V.24h4.241zM44.842 8.702v5.121h-4.661v-5.14L35.64.24h4.121l2.86 5.461L45.382.24h4.121l-4.661 8.462zM66.982.24v13.583h-4.241V8.262H57.92v5.562h-4.24V.24h4.24v5.001h4.821V.24h4.241zM81.542 8.882c0 3.181-2.2 5.182-6.321 5.182-4.541 0-6.401-1.94-6.401-5.241V.24h4.241v8.521c0 1.421.68 2.201 2.18 2.201 1.461 0 2.061-.78 2.061-2.201V.24h4.241v8.642zM96.701.24v13.583H92.74l-5.4-7.842v7.842h-3.961V.24h3.98l5.381 7.642V.24h3.961zM109.921 3.081h-3.681v10.742h-4.241V3.081h-3.661V.24h11.583v2.841zM122.68 11.022h-4.721l-.8 2.801h-4.142L117.678.24h5.481l4.44 13.583h-4.141l-.778-2.801zm-.8-2.82l-1.54-5.421-1.561 5.421h3.101zM142.461 3.081h-3.681v10.742h-4.241V3.081h-3.661V.24h11.583v2.841zM147.938 13.823h-4.24V.24h4.24v13.583zM163.001 6.281v7.542h-3.24v-2.341c-.541 1.7-1.841 2.581-3.941 2.581-3.9 0-6.521-2.781-6.521-7.021 0-4.321 2.86-7.042 6.962-7.042 3.9 0 5.941 1.501 6.481 4.682h-4.281c-.2-1.181-.92-1.801-2.12-1.801-1.621 0-2.721 1.301-2.721 4.141 0 3.041 1.12 4.161 2.82 4.161 1.4 0 2.2-.9 2.24-2.301h-3.2V6.281h7.521zM175.279 11.022v2.801h-10.422V.24h10.262v2.801h-6.021v2.5h5.861v2.701h-5.861v2.78h6.181zM182.599 8.502h-1.36v5.321h-4.24V.24h7.321c3.661 0 5.142 1.921 5.142 4.021 0 1.701-.681 3.161-2.821 3.841l3.201 5.722h-4.602l-2.641-5.322zm-1.361-2.58h2.141c1.261 0 1.801-.721 1.801-1.561 0-.82-.54-1.54-1.801-1.54h-2.141v3.101z"/></svg>